<?xml version="1.0" encoding="UTF-8"?>
<svg id="Layer_1" xmlns="http://www.w3.org/2000/svg" version="1.1" viewBox="0 0 438.18 505.19">
  <!-- Generator: Adobe Illustrator 29.5.1, SVG Export Plug-In . SVG Version: 2.1.0 Build 141)  -->
  <defs>
    <style>
      .st0 {
        fill: #fff;
      }
    </style>
  </defs>
  <path class="st0" d="M369.51,260.73c-1.93-.9-2.04-3.6-.17-4.63,24.37-13.41,51.05-27.78,38.5-60.4-14.26-37.04-53.44-48.09-99.47-45.47-28.63.61-57.04,4.5-84.81,11.5-22.45,5.66-44.27,13.35-66.41,20.04-4.99,1.51-5.16,7.29-2.45,10.19l-.14.65c-5.35,2.35-6,13.3-.87,13.16,5.49-.15,18.69-4.27,32.62-8.9-2.66,1.27-5.16,2.54-7.33,3.77-.88.5-1.79.94-2.69,1.39-3.59,1.79-7.18,3.57-10.62,5.63-1.98,1.18-3.91,2.44-5.75,3.83-1.58,1.2-4.46,2.48-4.7,4.73-.22,2.08,1.48,4.85,3.53,5.36,1.03.26,2.06-.11,3-.52,1.69-.73,3.42-1.25,5.12-1.94,4.29-1.75,8.47-3.4,12.59-4.97-2.88,1.7-5.71,3.48-8.49,5.35-3.51,2.36-7.24,5.07-5.84,9.91,1.21,4.19,5.39,5.2,9.16,4.57,7.21-1.2,14.2-4.95,20.86-7.8,9.08-3.89,18.28-7.19,27.65-10.3,17.7-5.87,35.54-10.35,53.84-13.82,19.7-3.74,43.52-9.11,62.76-.94,6.89,2.92,10.05,11.06,6.82,17.82-.03.06-.05.11-.08.17-7.62,15.71-37.71,31.43-53.53,39.59-9.58,4.94-29.77,11.09-36.59,15.9-11.26,7.95,7.09,12.83,12.38,15.68,14.32,7.71,32.08,18.07,35.72,35.42,5.48,26.12-40,39.94-59.51,42.74-48,6.9-106.53-18.13-131.05-60.86-21.88-38.12-6.74-84.54,16.18-120h0c6.57-9.38,12.47-16.83,17.81-22.83.51-.56,1.02-1.12,1.53-1.69,19.68-21.53,31.46-23.19,40.26-30.4,17.08-14.01.75-18.52-1.53-33.47-2.33-15.27,13.76-20.72,22.99-28.36,14.35-11.87,29.85-27.37,34.93-45.74,1.99-7.21,2.8-18.61-4.16-23.48-6.16-4.32-18.02,1.2-23.85,4.31-11.31,6.02-24.1,16.8-32.73,26.3-17.5,19.26-17.48,44.82-50.91,40.93-10.1-1.17-30.67-12-39.26-6.87-5.45,1.64-10.63,6.82-21.54,22.9-.89,1.32-40.9,58.59-39.88,59.94h0c-107.16,181.65,60.31,396.71,265.85,349.47,57.63-13.24,119.86-47.03,135.55-108.48,13.84-54.19-15.91-106.29-65.28-129.36ZM213.28,27.05c2.12-5.28,5.7-9.04,10.01-12.63.35-.29.72-.55,1.11-.77,1.87-1.79,4.94-2.19,7.21-.86,2.85,1.67,3.71,5.37,2.15,8.21-2.91,5.32-6.73,9.34-11.66,12.83-4.11,2.9-10.73-2.01-8.81-6.78ZM172.23,222.23c-.11.08-.19.18-.28.28-.11.03-.06-.03.28-.28ZM76.82,110.73s.07.03.11.05c.25.13.5.27.76.44.08.05.16.1.24.16h0c18.87,12.78,38.91,23.66,59.9,32.54,2.98,1.26,3.65,5.71,2.15,8.21-1.82,3.03-5.2,3.42-8.21,2.15-21.08-8.92-41.19-19.85-60.13-32.7-6.07-4.12-.87-13.77,5.19-10.85ZM380.47,384.45c-32.67,66.31-146.64,79.79-208.14,51.98-40.27-18.2-67.61-48.14-81.95-89.94-.02-.06-.04-.12-.06-.18-1.02-2.98,3.12-4.86,4.71-2.15,36.13,61.77,113.88,84.78,181.38,61.29,61.03-21.24,91.45-70.58,26.96-113.11-5.53-3.65-11.84-5.28-16.76-8.22-1.31-.78-1.36-1.88.1-2.39,1.11-.39,16.35.53,18.72.85,48.74,6.46,101.07,49.06,75.05,101.88Z"/>
  <path class="st0" d="M388.05,172.49c.24-.37-.31.36,0,0h0Z"/>
  <path class="st0" d="M382.97,163.07c-.07.09-.13.19-.2.28.19-.25.23-.31.2-.28Z"/>
</svg>